<svg xmlns="http://www.w3.org/2000/svg" width="355.432" height="487.317" viewBox="0 0 355.432 487.317"><defs><style>.a{fill:none;stroke:#e06878;stroke-miterlimit:10;stroke-width:1.886px;}</style></defs><path class="a" d="M4055.668,5833.37c40.1,0,79.878-1,120.039-1h99.957c40.2,0,79.957-1.984,120.089-.39a4.2,4.2,0,0,1,2.527.647,3.067,3.067,0,0,1,.762,2.647c-.281,5.509-1.608,10.927-2.762,16.346-6.061,28.459-2.826,53.54-1.988,81.451,1.008,33.577-.143,67.358-.143,100.955v207.21c0,21.684-2.149,43.308-.868,65.023a4.235,4.235,0,0,1-.656,3.154c-.956,1.092-2.741,1.187-4.3,1.187-39.038.011-75.073,6.263-113.939,6.263H4174.155c-40.151,0-79.829-.041-119.961-.74a3.739,3.739,0,0,1-2.264-.526,2.824,2.824,0,0,1-.766-2.288l-.871-45.517c-.214-11.235,5.6-19.451,6.44-30.2,1.319-16.848,0-34.207,0-51.1,0-45.518.312-91.046,0-136.564-.122-17.9-2.012-33.846-.7-51.872,1.507-20.657-.672-41.408-3.787-61.87-4.937-32.429-8.263-65.484-6.127-97.985a5.3,5.3,0,0,1,1.047-3.361c1.234-1.36,3.48-1.47,5.445-1.468Z" transform="translate(-4044.562 -5830.487)"/></svg>