<svg xmlns="http://www.w3.org/2000/svg" width="353.592" height="485.503" viewBox="0 0 353.592 485.503"><defs><style>.a{fill:#ff9d4c;}</style></defs><path class="a" d="M4388.852,6314.852c-40.106,0-79.878,1-120.039,1h-99.957c-40.2,0-79.957,1.985-120.09.39a4.2,4.2,0,0,1-2.527-.646,3.069,3.069,0,0,1-.761-2.647c.28-5.51,1.607-10.927,2.761-16.346,6.062-28.459,2.827-53.541,1.989-81.452-1.009-33.577.142-67.358.142-100.955V5906.987c0-21.684,2.15-43.309.869-65.024a4.231,4.231,0,0,1,.655-3.154c.956-1.092,2.741-1.186,4.3-1.187,39.039-.011,75.074-6.263,113.939-6.263h100.234c40.152,0,79.83.041,119.961.74a3.729,3.729,0,0,1,2.264.527,2.818,2.818,0,0,1,.766,2.287l.871,45.518c.215,11.234-5.6,19.45-6.44,30.2-1.318,16.847,0,34.207,0,51.1,0,45.518-.312,91.046,0,136.563.123,17.9,2.013,33.846.7,51.873-1.508,20.657.671,41.407,3.787,61.869,4.936,32.429,8.263,65.484,6.127,97.986a5.315,5.315,0,0,1-1.047,3.361c-1.235,1.36-3.48,1.47-5.445,1.467Z" transform="translate(-4045.464 -5831.359)"/></svg>