<svg xmlns="http://www.w3.org/2000/svg" xmlns:xlink="http://www.w3.org/1999/xlink" width="189.656" height="151.605" viewBox="0 0 189.656 151.605"><defs><style>.a,.aa,.ab,.b,.c,.d,.e,.f,.g,.h,.i,.j,.k,.l,.m,.n,.o,.p,.q,.r,.s,.t,.u,.v,.w,.y,.z{fill-rule:evenodd;}.a{fill:url(#a);}.b{fill:#4f2605;}.c{fill:#fff;}.d{fill:#d9d9d9;}.e{fill:#b3b3b3;}.f{fill:#c75221;}.g{fill:#ad451a;}.h{fill:#bf7814;}.i{fill:#a13d12;}.j{fill:#bd8a1f;}.k{fill:#7d400a;}.l{fill:#995414;}.m{fill:#fae8cc;}.n{fill:#fad9b5;}.o{fill:#db994f;}.p{fill:#d48f33;}.q{fill:#f5d19e;}.r{fill:#f2e0bf;}.s{fill:#edad63;}.t{fill:#29912b;}.u{fill:#63a838;}.v{fill:#267024;}.w{fill:#36611f;}.x{fill:none;stroke:#4f2605;stroke-miterlimit:22.926;stroke-width:0.629px;}.y{fill:#2b2929;}.z{fill:#b06326;}.aa{fill:#d67a30;}.ab{fill:#b0d18c;}</style><linearGradient id="a" y1="0.5" x2="1" y2="0.5" gradientUnits="objectBoundingBox"><stop offset="0" stop-color="#f4efff"/><stop offset="0.999" stop-color="#dc76bc"/></linearGradient></defs><g transform="translate(-3061.493 -6312.583)"><path class="a" d="M3156.32,6367.839c52.373,0,94.829,21.568,94.829,48.174s-42.456,48.175-94.829,48.175-94.827-21.569-94.827-48.175,42.456-48.174,94.827-48.174Z"/><path class="b" d="M3155.842,6371.5c50.549,0,91.528,19.782,91.528,44.183s-40.979,44.184-91.528,44.184-91.528-19.781-91.528-44.184,40.978-44.183,91.528-44.183Z"/><path class="b" d="M3156.257,6368.744c50.374,0,91.21,19.713,91.21,44.03s-40.836,44.031-91.21,44.031-91.21-19.713-91.21-44.031,40.836-44.03,91.21-44.03Z"/><path class="c" d="M3156.481,6366.352c50.373,0,91.209,19.714,91.209,44.031s-40.836,44.03-91.209,44.03-91.211-19.713-91.211-44.03,40.836-44.031,91.211-44.031Z"/><path class="b" d="M3220.7,6379.8c-16.423-7.927-39.125-12.83-64.215-12.83s-47.793,4.9-64.214,12.83c-16.286,7.862-26.36,18.677-26.36,30.581s10.074,22.718,26.36,30.579c16.421,7.928,39.124,12.831,64.214,12.831s47.792-4.9,64.215-12.831c16.284-7.861,26.357-18.675,26.357-30.579s-10.073-22.719-26.357-30.581Zm-64.215-14.069c25.284,0,48.186,4.953,64.776,12.962,16.725,8.074,27.07,19.274,27.07,31.688s-10.345,23.613-27.07,31.688c-16.59,8.008-39.492,12.961-64.776,12.961s-48.188-4.953-64.777-12.961c-16.725-8.075-27.07-19.275-27.07-31.688s10.345-23.614,27.07-31.688c16.589-8.009,39.492-12.962,64.777-12.962Z"/><path class="d" d="M3156.481,6374.878c44.077,0,79.808,15.9,79.808,35.5s-35.731,35.505-79.808,35.505-79.809-15.9-79.809-35.505,35.731-35.5,79.809-35.5Z"/><path class="e" d="M3080.12,6399.391c-2.31,6.064-4.62,2.888-2.31,9.385s3.466,2.022,6.353,8.374,0,5.053,4.043,6.786,3.032.289,5.919,1.877a34.624,34.624,0,0,0,6.209,3.032c2.455.866,2.455-1.3,6.353,1.877s3.754,0,7.363,3.754,8.952,3.9,9.818,5.776,8.086.577,9.385,2.165,2.455,1.3,6.5,3.754,13.139,1.588,17.471,2.166,13.139-2.743,17.759-2.6,11.84-4.62,14.872-5.486,16.459-6.209,17.181-7.075,6.5-8.374,11.839-10.107,6.642-6.209,7.8-6.209,5.919-2.165,6.5-2.887,2.454-8.952,2.454-8.952,1.732-1.3,1.3-2.6-23.967,3.321-30.176,8.807-14.438,5.631-31.187,7.364-33.641-8.952-46.924-8.807-9.962-.867-23.246-3.465a193.436,193.436,0,0,1-25.267-6.931Z"/><path class="f" d="M3098.345,6395.177c0,1.932,2.7,2.833,4.635,7.082s7.983,1.8,8.37,5.021-.9,2.189,8.626,5.279,15.966,1.545,20.988,2.962,4.378-3.09,7.339-1.031,4.249,2.061,6.824,3.091,16.481-.773,16.868-1.545,7.467-6.824,8.755-6.824,4.249-2.06,8.755-2.189-1.416-4.635,8.627-4.893,13.262-3.09,14.549-3.219,7.468-4.506,7.468-4.506,2.318-2.189,1.932-2.833-3.091-8.369-4.378-7.339,1.062-9.432-1.77-8.273c-.825.337-1.751-.079-2.108.021-.87.241-.423.441-1.884-.471-1.174-.734-3.03-.3-3.992-.581-.725-.209-.553-1.236-1.383-1.125-.389.051-2.429.749-2.391-.228.037-.938,1.058-.7.783-1.663-.3-1.064-1.938-1.344-2.317-1.951-.7-1.117-1.92.88-2.578.88-1.388,0-2.011-2.229-2.838-1.17-.17.218.088,3.309-.219,3.616-1.8,1.8-57.587,27.039-58.1,26.138s1.288-5.794-2.575-5.794-5.536-3.09-7.339-1.416-1.8.386-1.8-.386,3.219-7.082.515-5.666-1.159-.129-3.348,1.545-7.21-1.674-7.21-1.674-4.893-3.348-5.022-1.03,0,0-.129,2.7-4.635-.386-5.408.515-6.437-2.575-.772,1.932,6.567,4.763,6.567,4.763l-14.035.258Z"/><path class="g" d="M3197.166,6371.411a5.051,5.051,0,0,1-.16,1.877,3.689,3.689,0,0,1-.6.4,9.289,9.289,0,0,1-.4.98c-.676,1.385.644,2.415,2,2.222s.933,2.414,2.285,5.118,3.251,1.416,7.436,1.062,1.642-.419,4.378-2.221,0-.032-.065-1.738-1.416.354-1-1.32-4.379.418-5.6-1.159-.837,0-1.8-1.481-1.771.065-2.64-1.577-1.029.8-3.25-1.094l-.578-1.072Z"/><path class="h" d="M3185.956,6351.262s-91.805,20.73-96.183,31.417-4.635,12.1,1.288,18.026,24.078,16.095,48.8,18.412,30.9-3.09,51.245-7.983,37.6-19.829,37.6-19.829l-4.893-4.892s-10.557.386-13.648.515a31.612,31.612,0,0,1-7.6-1.1l-1.159-.869s-2.671.1-2.8-.257,1.061-2.189,1.061-2.189l-2.059-1.03-.9-.966a22.291,22.291,0,0,0-2.382,1.062c-.257.226,2.479-6.373,2.479-6.373s1.963-11.427-.548-13.809-3.8-3.67-5.729-3.863-5.022-2.639-5.022-2.639l.452-3.638Z"/><path class="i" d="M3221.033,6386.515l-1.273.047c-.231.2-.486.433-.77.7-5.279,4.893-47.833,21.954-54.4,22.662s-1.352.579-8.949.192-11.845-2.188-10.236-1.738-12.425-3.154-12.811-3.283-2.7-3.155-4.121-2.253-2.9-1.674-3.09-2.447-4.957-6.244-5.214-5.021-3.413-4.7-4.636-4.313-13.648-3.863-4.12,2.51,12.876,7.339,15.515,10.365,1.867,2.125,3.283,3.026,1.159-.193,1.867.772-.128-.193.837.966.322-.322,1.417,1.1,1.609.386,2.317,1.094.387.644.966.9.322-.579,1.288.258.321-.193,1.48,1.03,1.288,1.159,2.254,1.159,1.416-.515,1.931-.451,2.9-.515,3.541.258-.515.45,1.094.772,2.769-.193,3.284.257-1.417.58.965.451,2.511-.708,2.511-.708l-.708-2.253c.257,1.545-.837.9.772,1.61s2.06-.516,2.575.321.58,1.224,1.159.837-.322-1.867.9-1.352,2.768-.193,3.219-.064-.322-1.288,1.416-.644,1.932-.322,2.317-.193.644-.708,1.417-.193a1.409,1.409,0,0,0,1.867-.322c.322-.386,2.833-2.511,3.347-2.447s.515-1.094,2.125-1.094.58-.515,2.382-.257a5.054,5.054,0,0,0,3.991-1.03c.515-.58,4.249-3.413,4.571-3.348s6.632-3.863,8.048-3.283,3.348-1.224,4.12-1.1,2.511-1.094,3.154-1.158a16.785,16.785,0,0,0,3.155-1.739,41.279,41.279,0,0,1,5.344-1.8,10.2,10.2,0,0,0,4.7-2.576,11.313,11.313,0,0,0,1.481-2.961s.257-.579,1.48-.966a7.553,7.553,0,0,0,2.237-2.288Z"/><path class="i" d="M3112.83,6397.237c-.065,2.575-.322,1.223.965,2.833s-.322-.58,1.674,1.609,2.962,0,3.67,1.609.386-.9,2.317,1.417,1.288-.772,3.541,1.481,2.447-.065,3.67,2.382,1.223.9,3.669,2.317,3.026,1.8,4.764,2,2.511-.579,2.962.322-.837-.129,1.159,1.095-.9-.129,2.382.9,4.313.579,5.794.772,5.086.065,5.729.194,7.855-1.1,2.769-1.288-6.116-1.61-10.88-1.739.515.387-5.666-.772-3.09-.064-6.18-1.867-3.6-2.639-6.116-3.154-2.7-4.636-4.635-5.8-1.288-2.253-4.314-2.639-1.545-.837-3.991-1.545-4.314-3.348-6.116-2.511-1.095-1.609-2.06.9-1.159,2.576-.451,3.091.065-.515,1.352.515,2.125.386,2.125.386l1.867-2.511Z"/><path class="i" d="M3113.667,6387.258c-2.382,4.378-2.446,4.378-.966,5.151s5.151-.579,4.958.966-.773,0,.45,1.738,8.369-.065,8.176.257-1.738,2.06-1.738,2.06,4.507-4.055,6.953-2.639a7.3,7.3,0,0,0,4.7.965s2.188-4.957-1.288-4.442-1.223-4.056-5.215-4.506.258-5.408-4.056-4.185-5.987-3.09-7.725-.193-5.15.193-5.408,2.253a2.218,2.218,0,0,0,1.159,2.575Z"/><path class="j" d="M3194.06,6381.61c-3.862,1.931-4.249.9-8.369,1.8s-5.15-2.318-7.983.9,3.477,3.09-5.408,3.6-.9-6.438-9.656-.129-5.923,6.438-8.627,4.764-2.961-4.378-4.893-4.12-4.249-.129-5.15,1.545,2.446,1.288-1.288,1.417-3.6-3.091-3.6-3.091-5.279-6.309-6.953-.129,15.065,19.7,15.709,20.473,39.657-1.545,43.649-6.567,9.656-10.815,10.042-12.36-.644-9.657-.644-9.657l-3.733.257-3.091,1.288Z"/><path class="k" d="M3185.956,6351.262s-32.576,7.356-59.843,15.563a19.554,19.554,0,0,0-1.968,12.6c1.674,10.3,6.953,7.983,9.142,7.854s-1.4-4.751,1.045-9.643,10.8,3.978,16.724,2.562,0-.9,5.665-5.537,2.06.515,4.636.129,1.8-.387,2.059-3.606.773.129,4.635,0,.773.129,5.923-1.545-.386-.772.258-5.665.386,1.159,12.1-.257c11.393-1.378,1.485-1.781,4.123-6.182-1.935-.242-4.954-2.631-4.954-2.631l.452-3.638Z"/><path class="l" d="M3186.093,6382.753c-1.866,2.9-2.253,1.223-6.309,3.154s-.064,1.416-7.661,2.318-6.76-1.031-10.429,2-.58,2.9-6.953,3.477-1.352-2.06-7.532-.58-6.889-5.214-6.953.258-1.738,5.537,3.6,7.017,28.391-4.313,30.322-4.313,11.009-.966,13.52-1.03,9.85-4.443,11.009-5.794.9-5.537.322-5.794.128-4.829-2.061-3.348,1.674.128-2.382,1.609a21.541,21.541,0,0,1-8.5,1.031Z"/><path class="b" d="M3134,6406.074c1.224,2.446,1.545,2.832,3.219,3.283s1.8-.193,4.378.837-1.416.387,4.313,1.03,4.829.129,7.983.644,6.7-.322,7.79-.322,1.48-.579,2.189.129-1.159-2.189,2.833-1.224,4.764-2.188,8.5-1.738,11.138-4.571,12.94-5.214,10.815-4.764,11.4-4.764,3.863-2.511,4.7-2.511,6.308-.065,4.377-1.674-13.841-3.476-22.918,1.159-13.971.322-26.074,5.021-11.009,2.382-18.992,1.417-18.09-6.76-15.708-3.348,4.442,3.026,5.408,4.828,3.669,2.447,3.669,2.447Z"/><path class="m" d="M3089.019,6390.131c1.416,1.417,3.179,5.779,4.337,6.422s10.365.58,11.717,1.288,2.961,2.06,2.961,2.7,1.288,1.61,1.352,2.06,1.224,1.416,1.224,1.416l5.343.708,3.283,1.739s6.245.708,6.825.9a28.894,28.894,0,0,1,3.412,2.961l2.446-.128,1.126,1.867,2.479.064a5.442,5.442,0,0,0,.934,1.062,24.2,24.2,0,0,0,3.154.709,13.892,13.892,0,0,1,2.092,1.19c0,.161,1.224,2.254,1.224,2.254l.579-1.835,8.079.869s2.64.773,2.833.773,2.608-1.063,2.608-1.063l1.867.548,3.09-1.739,4.313-.064,5.118-2,3.638-2.8,4.12-.161,3.508-2.093,5.537-2.639,3.734-2.479,5.794-.675,3.155-1.964,5.278-.934,10.141-5.44,1.19-2.317,4.056-2,2.06-3.653,2.865-1.449.547-2.672,3.026-4.764a62.141,62.141,0,0,1,2.478,6.18c.162,1.03.484,4.958.966,5.569s2.576,2.672,2.64,3.251,1.127,6.856,1.255,7.5a57.7,57.7,0,0,1-.708,5.923s-1.674,3.67-1.738,3.831-2.093,2.414-2.093,2.607a19.046,19.046,0,0,1-2.285,1.835l-2.688,1.255s-1.8,1.755-1.979,1.835-3.267,1.433-3.267,1.433l-1.337,2.494-8.111,3.412-5.231,2.768-4.86,3.493-2.608.772-1.641,2.705-10.076,2.606s-3.83,1.513-3.83,1.8a20.543,20.543,0,0,1-3.139,3.123,54.666,54.666,0,0,1-5.424,1.287l-5.215,2.543-3.122,1.207-5.456-.853-3.541,1.384-4.539-.805-21.373-5.858-2.382-.419-1.449-.547-6.277-1.609-5.214-5.633-3.638-.966-4.828-3.6-3.477-.708-4.023-3.155-5.5-.74-1.77-2.35-2.446-1.738-2.415-2.189-4.41.289-2.543-3.508-.064-1-1.577-1.159-.033-2.559-2.028-1.77.21-3.863,1.239-2.245.121-1.722.161-1.32-.548-1.8,1.352-.032.515-1.384,2.35-.258,2.479-1.577,1.963-.161-.8-1.939.91-.306Z"/><path class="n" d="M3147.1,6443.93l-13.954-3.825-2.382-.419-1.449-.547-6.277-1.609-5.214-5.633-3.638-.966-4.828-3.6-3.477-.708-4.023-3.155-5.5-.74-1.77-2.35-2.446-1.738-2.415-2.189-4.41.289-2.543-3.508-.064-1-1.577-1.159-.033-2.559-2.028-1.77.21-3.863,1.239-2.245.121-1.722.009-.081c5.778,5.892,15.868-.876,16.445,5.616s1.444,1.876,5.342,7.075,5.631,3.753,8.519,5.486,5.053-3.177,7.652,3.032-1.155,1.732,6.93,7.508,14.15.144,15.449,3.9,1.588,2.31,3.176,4.043,5.343-1.733,4.91,2.31c-.417,3.885,12.763,2.171-1.969,6.132Z"/><path class="n" d="M3168.7,6413.9l2.714-1.059,3.638-2.8,4.12-.161,3.508-2.093,5.537-2.639,3.734-2.479,5.794-.675,3.155-1.964,5.278-.934,10.141-5.44,1.19-2.317,4.056-2,2.06-3.653,2.865-1.449.547-2.672,3.026-4.764a62.141,62.141,0,0,1,2.478,6.18c.041.263.093.714.155,1.25-.448.967-.768,1.671-.768,1.671-1.029,3.605-.386.129-3.6,3.863s3.348,1.674-2.7,4.12-5.408-.9-8.111,2.446,3.734.9-3.348,3.734-3.863,1.545-7.6,2.061-1.417-2.833-4.249,1.545-.515,2.446-5.15,4.892-1.545-.9-5.794,2.318-3.6,0-7.854,2.7,1.674.386-6.567,2.446-8.112,3.09-8.37,1.159a21.472,21.472,0,0,1,.121-3.294Z"/><path class="n" d="M3145.028,6415.676l6.558.706s2.64.773,2.833.773,2.608-1.063,2.608-1.063l1.867.548.073-.042a16.535,16.535,0,0,0,3.811,1.36c6.181,1.03.774,1.8.774,1.8s4.12,1.8,5.407,5.408-.258,3.6,8.241,4.377,2.574.773,9.785.773,5.665.258,10.558-2.832,9.785-10.559,13.391-18.8,2.06,1.03,13.906-1.288c9.466-1.852,6.6-1.073,12.03-3.313-.1.674-.175,1.141-.175,1.141s-1.674,3.67-1.738,3.831-2.093,2.414-2.093,2.607a19.046,19.046,0,0,1-2.285,1.835l-2.688,1.255s-1.8,1.755-1.979,1.835-3.267,1.433-3.267,1.433l-1.337,2.494-8.111,3.412-5.231,2.768-4.86,3.493-2.608.772-1.641,2.705-10.076,2.606s-3.83,1.513-3.83,1.8a20.543,20.543,0,0,1-3.139,3.123,54.666,54.666,0,0,1-5.424,1.287l-5.215,2.543-3.122,1.207-5.456-.853-3.541,1.384-4.539-.805-15.923-4.364c3.263.251,6.286.566,7.963.566,6.438,0,.773.515,4.121-2.318s1.8-.258,1.287-6.18,0-1.288.515-4.635-1.541-1.036-7.45-13.356Z"/><path class="o" d="M3220.166,6339.466s-.74-4.989-1.03-5.762a18.423,18.423,0,0,0-2.672-3.315c-.16-.1-5.471-3.8-5.471-3.8l-8.048-4.893-3.122-2.639-5.118-2.157-9.287-2.189-7.725-.837-8.385-.692a37.52,37.52,0,0,0-4.314.193c-.225.177-7.79,2.141-8.048,2.334s-10.719,2.189-10.944,2.447-7.178,3.669-7.178,3.669l-12.715,5.054-7.114,2.092-13.262,7.629-12.1,9.013-5.537,8.627s-4.442,7.081-5.536,11.717-2.06,8.5-2.06,8.5,1.384,5.343,1.287,6.4a50.176,50.176,0,0,1-.418,6.213c-.386,1.545-1.8,1.094-1.867,1.931s1.416,2.9,1.545,4.185.257,2.575.257,2.575,1.739-1.8,2.061-1.674a16.328,16.328,0,0,0,3.09-.837l2.253-1.481-.322-1.48,3.863.128s3.476-4.506,3.862-4.571,7.018-3.862,7.018-3.862l8.691-1.867,3.992-.113s1.866-.08,2.06-.016,1.158-1.11,1.319-1.416a9.7,9.7,0,0,1,2.382-1.578c.21,0,2-.466,2-.466l6.567-1.336,5.166-1.883,4.539-2,1.319-1.642,3.155-.482,3.09-1.674,3.155.45,3.09-2.06,2.189.708,4.41-2.478,3.09-.869,4.056-1.1,2.961-1,1.158-1.19,2.061.031,2.318-1.931,4.216-1.223,4.411-1.577,1.834-.773,3.219-.386,3.508-1.867s3.284-1.352,3.445-1.32a21.615,21.615,0,0,0,2.285-1.513l2.35-.032,3.927-1.835,3.863-1.191,2.479-1.8,4.731-1.384,4.314-2.608-.306-1.11Z"/><path class="p" d="M3220.166,6339.466s-.74-4.989-1.03-5.762a18.423,18.423,0,0,0-2.672-3.315c-.122-.074-3.245-2.248-4.717-3.273-22.963,11.849-57.9,27.532-57.208,36.507a4.154,4.154,0,0,0,1.393,2.94l4.314-2.424,3.09-.869,4.056-1.1,2.961-1,1.158-1.19,2.061.031,2.318-1.931,4.216-1.223,4.411-1.577,1.834-.773,3.219-.386,3.508-1.867s3.284-1.352,3.445-1.32a21.615,21.615,0,0,0,2.285-1.513l2.35-.032,3.927-1.835,3.863-1.191,2.479-1.8,4.731-1.384,4.314-2.608-.306-1.11Zm-31.869-24.075-2.879-.679-7.725-.837-8.385-.692a37.52,37.52,0,0,0-4.314.193c-.225.177-7.79,2.141-8.048,2.334s-10.719,2.189-10.944,2.447-7.178,3.669-7.178,3.669l-12.715,5.054-20.376,9.721-12.1,9.013-5.537,8.627s-4.442,7.081-5.536,11.717-2.06,8.5-2.06,8.5.994,3.836,1.238,5.653a18.082,18.082,0,0,0,3.79-2.065c2.06-7.726,34.507-12.876,40.172-11.331,3.6.982,10.939,2.171,15.815,2.908l2.8-.428,3.09-1.674.859.122c2.582-3.758,6.793-10.821,6.793-16.894,0-8.755.515-23.176,4.12-25.236s14.421-2.06,23.691-7.725a29.635,29.635,0,0,1,5.432-2.4Z"/><path class="q" d="M3080.891,6376.04a28.154,28.154,0,0,1,.893,4.821,50.176,50.176,0,0,1-.418,6.213c-.386,1.545-1.8,1.094-1.867,1.931s1.416,2.9,1.545,4.185.257,2.575.257,2.575,1.739-1.8,2.061-1.674a16.328,16.328,0,0,0,3.09-.837l2.253-1.481-.322-1.48,3.863.128s3.476-4.506,3.862-4.571,7.018-3.862,7.018-3.862l8.691-1.867,3.992-.113s1.866-.08,2.06-.016,1.158-1.11,1.319-1.416a9.7,9.7,0,0,1,2.382-1.578c.21,0,2-.466,2-.466l6.567-1.336,5.166-1.883,4.539-2,1.319-1.642,1.532-.234c-.048-.284-.09-.591-.125-.925-.643-6.309-3.09-.386-7.21-1.8s-.772,0-3.734-1.8-4.764,0-9.013-.773-9.657,1.288-11.073.258-3.219,3.734-3.734.257-1.674,0-4.378-1.159-.9-.257-5.923-1.8-6.308,4.506-6.308,4.506-7.6,10.945-9.529,10.816c-.263-.018-.521-.374-.771-.974Z"/><path class="r" d="M3080.5,6391.567a5.627,5.627,0,0,1,.541,1.623l.113,1.127c1.707-.317,3.773-.855,5.921-1.475l1.627-1.069-.322-1.48,3.863.128s3.476-4.506,3.862-4.571,7.018-3.862,7.018-3.862l8.691-1.867,3.992-.113s1.866-.08,2.06-.016,1.158-1.11,1.319-1.416a9.7,9.7,0,0,1,2.382-1.578c.21,0,2-.466,2-.466l6.567-1.336,5.166-1.883.147-.065-2.853-.475-5.923-1.545s.258-3.09-1.8-1.03a10.336,10.336,0,0,1-4.893,2.575c-3.09-.258-7.468-4.249-10.558-1.8s-.773-1.545-6.567,1.03-4.12-1.931-7.339,1.932,1.288,1.674-3.219,5.665-4.635,1.416-7.468,5.536-3.09,3.606-4.12,6.052a2.18,2.18,0,0,1-.2.382Z"/><path class="s" d="M3157.114,6351s.515-3.09,1.288-6.953,1.544-9.271,1.544-9.271.258-3.347,3.348-3.6a13.822,13.822,0,0,0,4.635-1.03s3.09-3.863,6.7-5.15a107.038,107.038,0,0,1,15.451-3.348c1.287,0,2.06-1.03,4.12.258s4.892-3.09,5.15,2.832,4.893,2.318,0,6.438-2.059,1.03-6.18,4.12-2.576.773-9.27,4.636-6.7-.258-8.5,4.377.772,2.833-2.833,4.893-3.09-.773-5.408,3.09-8.24,2.575-10.043,5.151-2.06,2.832-2.06,2.832l2.06-9.27Z"/><path class="b" d="M3108.984,6343.567c0,4.693-.307,6.5,8.321,3.436,1.66-.59,11.375-.534,11.25.942-.262,3.075,4.748-2.685,5.665,3.516a3.367,3.367,0,0,0,.773,2.149l-2.111,2.515a3.369,3.369,0,0,1-.772-2.148c-.918-6.2-5.927-.442-5.665-3.518.125-1.475-9.59-1.532-11.25-.941-8.628,3.069-8.322,1.256-8.322-3.436l2.111-2.515Z"/><path class="b" d="M3203.183,6336.94c-6.718,4.554-30.405,13.734-35.894,17.173-.023.029-.047.057-.071.085l-.014.017-2.1,2.5c-.3.354-.642.661-1.324,1.344l2.087-2.488c.095-.163.2-.347.319-.559l.085-.119,2.109-2.515c2.13-2.537,29.591-12.99,36.91-17.951l-2.111,2.515Z"/><path class="b" d="M3132.882,6325.609a1.877,1.877,0,0,0-.621.063,16.969,16.969,0,0,1-2.045,3.371l-2.11,2.515a8.315,8.315,0,0,1-5.911,2.936l2.111-2.515a8.7,8.7,0,0,0,4.8-1.834,38.49,38.49,0,0,1,2.121-3.742l2.111-2.515a1.916,1.916,0,0,1,1.659-.794l-2.111,2.515Z"/><path class="t" d="M3216.8,6376.593a6.391,6.391,0,0,1-3.294,4.7,26.8,26.8,0,0,1-7.018,2c-1.8.321-11.008-.451-12.489.579s-10.751,3.734-10.751,3.734l-7.726,1.738s-16.577,6.277-19.055,6.6-13.391,2.317-13.391,2.317-5.408-.16-5.569-.16-8.208-2.737-8.82-2.833-3.6,1.48-3.669,1.963,3.83,3.7,4.088,4.217a31.873,31.873,0,0,0,3.9,3.637c.45.29,6.051,2.318,7.113,2.9s3.348.45,4.121.45,2.285-.869,2.478-.8,1.706,1.19,2.543,1.19,4.732.065,4.732.065,4.506,1.448,6.534,1.448,13.391-2.382,13.81-2.382,5.665-1.963,5.665-1.963l3.123-1.77,2.864-1.191,7.307-3.059,10.784-5.568s4.249-1.417,4.635-1.417,3.444-.933,3.444-.933l1.288-1.674,4.023-1.3,3.766-2.784,2.285-.644c3.181-1.378,3.107-.959,3.542-4.539l2.526-3.219,5.232-3.412,4.072-6.341-5.408,2.913-5.73,3.686-2.173.064s-7.613.467-8.161.934-.707.563-.611.772-.007.095-.005.095Z"/><path class="u" d="M3201.751,6383.337c-3.184-.054-6.859-.086-7.749.533-1.48,1.03-10.751,3.734-10.751,3.734l-7.726,1.738s-16.577,6.277-19.055,6.6-13.391,2.317-13.391,2.317-5.408-.16-5.569-.16-8.208-2.737-8.82-2.833a3.042,3.042,0,0,0-1.195.353c.2.151.412.3.657.46,6.051,3.863,6.824,3.09,15.708,3.992s4.507.9,7.082.257,7.854-1.416,13-3.09,2.575-.386,5.28-2.06,4.119-.773,9.914-2.06,3.734-1.288,7.339-3.734,12.49-3.348,15.193-4.635a11.1,11.1,0,0,1,.079-1.411Z"/><path class="v" d="M3216.8,6376.593a6.391,6.391,0,0,1-3.294,4.7,21.087,21.087,0,0,1-2.38.929c.052.016.107.031.168.045,2.833.644,6.888-2.446,9.335-2.189s.965-2.06,3.67-2.06,0-1.416,2.961-1.8,3.6-.128,3.6-1.609a14.676,14.676,0,0,0-.136-1.8l-2.979,1.917-2.173.064s-7.613.467-8.161.934-.707.563-.611.772-.007.095-.005.095Z"/><path class="w" d="M3127.406,6399.754a14.948,14.948,0,0,1,1.7,1.691,31.873,31.873,0,0,0,3.9,3.637c.45.29,6.051,2.318,7.113,2.9s3.348.45,4.121.45,2.285-.869,2.478-.8,1.706,1.19,2.543,1.19,4.732.065,4.732.065,4.506,1.448,6.534,1.448,13.391-2.382,13.81-2.382,5.665-1.963,5.665-1.963l3.123-1.77,2.864-1.191,7.307-3.059,10.784-5.568s4.249-1.417,4.635-1.417,3.444-.933,3.444-.933l1.288-1.674,4.023-1.3,3.766-2.784,2.285-.644c2.259-.979,2.877-1.051,3.2-2.294a19.514,19.514,0,0,0-4.028,1.369c-5.922,2.576-2.575-1.545-9.012.773s-5.923,3.348-5.923,3.348c-2.318,4.377-7.468,4.12-12.1,5.15s-5.923-.257-6.953,2.833-3.862-1.288-9.013,2.317-3.863,1.8-10.3,3.863-2.318.515-10.043,2.832-16.738-4.892-21.116-3.347c-2.6.917-7.368-1.248-10.821-2.73Z"/><path class="b" d="M3125.369,6378.295s-1-1.9-2.028-1.545-2.671-.161-3.38.933-.418,1.416-1.577,2.028-.354-.708-3.7-.129-4.925.869-7.307,1.255-3.348.258-4.152,1.192-8.627,4.731-8.627,4.731a4.94,4.94,0,0,1-2.06,2.962c-1.674,1.03-3.863-.129-3.992.772s2.189,1.031-.129,2.189-3.6-.258-3.6,1.545-.644,2.576.258,2.576,7.339-.9,7.339-.9-2.06,0,2.575.9,13.508-1.325,7.468-1.159c-16.681.457,24.721-18.247,24.721-8.885,0,4.636,1.8,3.863,4.249,5.151s2.447.514,3.477,1.673-1.931,2.833-1.931,2.833a31.331,31.331,0,0,0,5.407,1.738c3.477.837,5.408-.515,5.408-.515l-.258-1.287s-2.51-.708-2.51-1.224v-3.862a32.442,32.442,0,0,1-3.67,0c-1.288-.129-2.639-2.64-2.639-2.64l-1.867.065-3.67-7.146-2.318-2.189-1.48-1.062Z"/><path class="b" d="M3197.6,6373.176c.58,3.992.193,3.541,1.61,5.408s-.644,0,2.832,2,1.932,1.8,4.507,2.06c1.553.156,3.95-.017,4.746-.009.523.005.353.089-1.2.4-3.927.772-11.266.643-13.391.9s-2.189.709-1.931-.643c.041-.216.092-.423.147-.623a9.308,9.308,0,0,0,.69-2.854,11.807,11.807,0,0,1,.257-2.832c.129-.709,1.416-6.245,1.416-6.245l.322,2.446Z"/><path class="j" d="M3190.793,6366.529c-5.15,3.476-7.21,1.03-8.24,3.734s2.189,4.249-1.159,3.734-2.705-6.052-4.765-2.962,3.864,2.318-2.574,4.249-6.439.258-9.142,1.674-3.219-.9-4.249,2.06-6.052.773-6.052,3.734,1.159,4.378,3.348,4.507,13.133-9.4,17.769-6.825,10.815.645,12.875.516,3.6-2.575,3.6-2.575,2.575-.773,2.575-2.833,1.417-5.73,1.031-7.146-1.868-3.348-2-3.8-.065-3.863-1.224-3.091-2.51.9-1.351,2.318,2.446.773,1.159,1.609-5.086,0-5.344.709-1.094.45-.257.965,3.991-.579,3.991-.579Z"/><path class="b" d="M3118.771,6407.342c-.813.238-.918-.009-.768-.423l.728-2c-1.409-.79-1.814.009-1.64-2.084l.011-.05v0l1.122-3.083a.4.4,0,0,1,.124-.144l-.152.416c-.128,1.856.321,1.066,1.756,1.919.087.052.081.172.022.334l-.763,2.1a1.2,1.2,0,0,0,.682-.067l-1.123,3.085Z"/><path class="b" d="M3141.718,6411.6c.844.328,2.3,1.12,3.294.283.484.139.291,1.138,2.05.179.466-.255.262.762,2.317-.591l-1.123,3.086c-2.055,1.352-1.851.335-2.317.59-1.759.959-1.566-.04-2.049-.178-1,.836-2.451.045-3.295-.284l1.123-3.085Z"/><path class="b" d="M3181.633,6404.708c3.583-2.472,5.93-1.2,8.74-2.768,2.385-1.329.154.567,2.621-1.84l.227-.221-1.123,3.085-.227.221c-2.467,2.407-.236.511-2.621,1.839-2.81,1.565-5.157.3-8.74,2.769l1.123-3.085Z"/><path class="b" d="M3176.84,6389.316c-1.541.115-3.288,1.322-3.985.226-.9-1.4-4.992-.275-5.8-.805l1.123-3.086c.809.531,4.906-.6,5.8.806.7,1.095,2.443-.111,3.985-.226l-1.123,3.085Z"/><path class="x" d="M3119.588,6375.927c-.643.579.387.9-.965,1.1s-.258-.065-1.674,0-1.738-.387-2.06.128-2.575.451-2.575.451"/><path class="b" d="M3102.353,6379.916c-1.253-.215-3.812,3.277-4.812,1.733-.126-.195-.211-.138-.3.052l-.236.649c-.312.856-.879,1.982-2.481,1.274l-.736-.167,1.123-3.085.736.167a1.584,1.584,0,0,0,2.378-1.01l.268-.736c.116-.319.209-.475.369-.229,1,1.544,3.559-1.948,4.812-1.733l-1.123,3.085Z"/><path class="b" d="M3111.072,6401.553c1.03.721,2.913,1.245,3.776.187l.473-1.3c.327-.9,1.946.2,2.64.347l.432-1.187c.14-.385.429-.562.984-.562l-1.123,3.086a1.465,1.465,0,0,0-.536.083l-.577,1.583c-.174.479-2.054-.982-2.747-.527l-.374,1.028,0,.008c-.626,1.72-2.9,1.156-4.067.335l1.122-3.084Z"/><path class="b" d="M3140.236,6398.14c1.547.7,3.258-1.587,5.536-1.481a14.523,14.523,0,0,1,2.575.129l-1.123,3.085a14.6,14.6,0,0,0-2.575-.128c-2.278-.107-3.989,2.181-5.536,1.48l1.123-3.085Z"/><path class="b" d="M3211.925,6383.65l.071-.281,1.123-3.085c.375-1.031,1.888-1.469,2.975-1.457,1.064.01,2.051-.387,3.851-.387,1.233,0,1.64-.367,2.373-1.674l-1.122,3.086c-.734,1.306-1.141,1.674-2.374,1.674-1.8,0-2.787.4-3.851.386a3.455,3.455,0,0,0-2.849,1.195l-.2.543Z"/><path class="b" d="M3223.735,6384.878a1.719,1.719,0,0,1-.1.641l-1.123,3.085c-.409,1.124-2.007,1.612-3.568,1.935a1.725,1.725,0,0,1-.5.186l.034-.094a19.178,19.178,0,0,0-2.346.509l-.346.125-.011,0-.214.079,1.124-3.085s.065-.025.212-.079l.012,0a23.446,23.446,0,0,0,2.806-1.255h0a5.611,5.611,0,0,1,1.455-1.321,3.184,3.184,0,0,1,1.921-.725l-.131.362c.445-.186.621-.121.55.075l-.318.873c.038-.037.074-.075.108-.114l.436-1.2Z"/><path class="b" d="M3190.193,6352.624a.964.964,0,0,1-.055.334l-1.123,3.085c-.394,1.084-2.813.765-4.322,1.018-.223.038-.312.032-.3,0l1.123-3.085c.061-.17,2.654-1.044,3.512-.689l0,.01,0,.012c.069-.038.175-.092.333-.167l-.185.509a1.59,1.59,0,0,0,.8-.417l.221-.608Z"/><path class="y" d="M3155.171,6326.873l-.087.262-.423,1.162c0,.1,0,.228,0,.379l-1.122,3.085a2.883,2.883,0,0,1,.063-.851l1.12-3.079,0-.006c.053-.145.141-.172.278-.475l.173-.477Z"/><path class="y" d="M3148.956,6334.978l1.114-3.063.008-.022.2-.513-.405,1.111c-.093.289-.176.574-.239.82l-1.123,3.085c.107-.417.272-.946.444-1.418Z"/><path class="b" d="M3203.734,6329.1c-.34.421-.5.534-.48.471l.513-1.409a1.831,1.831,0,0,1,.479-.472,16.965,16.965,0,0,0,1.222-1.783l-.477,1.311a6.8,6.8,0,0,1,1.463-.56l-.513,1.409c-.063.069-.124.135-.18.2a16.673,16.673,0,0,1,2.926-.685l-.513,1.41c-1.392,0-3.57,1.218-3.291.45l.429-1.18a5.884,5.884,0,0,0-1.578.839Z"/><path class="b" d="M3188.408,6434.837a2.289,2.289,0,0,0,1.654-.908,9.644,9.644,0,0,0,1.061-1.754c.286-.673.354-.71.253-.43l-.509,1.4,0,.012a7.892,7.892,0,0,1-.818,1.548c.374-.221.93-.579,1.722-1.1.6-.4,1.579-2.785,1.218-.934l-.08.286-.513,1.409a2.9,2.9,0,0,1-.485.818c.372-.116.809-.252,1.319-.409.781-.242,3.265-1.6,3.63-2.47l.026-.07c.076-.211.846-1.34,1.137-1.915l.111-.3-.024.112-.514,1.41c-.163.448-1.081,1.787-1.214,2.083l-.022.063c-.318.874-2.854,2.257-3.643,2.5a18.593,18.593,0,0,1-3.154.914l.466-1.282c-.938.594-1.208.7-1.134.5l.188-.517a1.862,1.862,0,0,1-1.183.46l.513-1.409Zm4.136-1.232c.056-.645-.376.219-.823.866a5.233,5.233,0,0,0,.823-.866Z"/><path class="b" d="M3128.087,6427.3a.466.466,0,0,0-.175-.029,2.246,2.246,0,0,0,.644.444c.34.166.454.253.436.3l-.514,1.41c-.011.032-.081.049-.181.063l-.468,1.285c-.436-.473-.538-.763-.472-.944l.331-.911c-.545-.37-.638-.774-.523-1.09l.513-1.41a.811.811,0,0,1,.922-.531l-.513,1.41Z"/><path class="b" d="M3124.868,6414.551c-.235.51-.378.834-.451,1.037l.513-1.41c.074-.2.216-.527.451-1.037l-.513,1.41Zm.062-.373c-.356.977.875-.864.955,1.667.025.8,1.177.2,1.685-.386l-.513,1.409c-.508.591-1.66,1.187-1.685.387-.08-2.532-1.311-.69-.955-1.667l.513-1.41Z"/><path class="b" d="M3100.659,6404.128c1.192,0,1.492.041,1.459.131l-.326.9a4.468,4.468,0,0,0,1.067.422c.365.107.247.342.247.74l-.513,1.41c0-.4.118-.633-.247-.74-1.16-.34-1.4-.612-1.318-.825l.218-.6c-.226-.016-.577-.024-1.1-.024l.513-1.41Z"/><path class="b" d="M3100.659,6416.231c-.641,2.256.7.371.869,1.472.286,1.876,1.8-.132,1.964-.313l-.513,1.41c-.165.18-1.678,2.188-1.964.313-.168-1.1-1.51.784-.869-1.472l.513-1.41Z"/><path class="z" d="M3219.883,6337.634a39.844,39.844,0,0,0-.747-3.93,18.423,18.423,0,0,0-2.672-3.315c-.122-.074-3.245-2.248-4.717-3.273-.949.49-1.921.987-2.908,1.489,4.526,3.39,8.539,6.767,11.044,9.029Zm-34.37-21.174c-11.735-2.01-27.7.2-33.994,2.222-7.652,2.455-23.246,9.818-33.93,15.594s-26.566,19.058-28.3,21.079c-.675.788-3.058,4.115-5.733,7.6a66.519,66.519,0,0,1,4.536-8.709l5.537-8.627,12.1-9.013,20.376-9.721,12.715-5.054s6.953-3.412,7.178-3.669,10.687-2.254,10.944-2.447,7.823-2.157,8.048-2.334a37.52,37.52,0,0,1,4.314-.193l8.385.692,7.725.837,2.879.679c-1.011.353-1.945.71-2.784,1.069Z"/><path class="w" d="M3196,6389.9c5.536,1.674,5.151.773,5.536,1.674s-1.545.128.773.9,1.8,0,2.7,0,4.249,0,2.318-.9a4.758,4.758,0,0,0-3.734-.064s-.323-.773-2-1.417-5.537-.258-5.6-.193Z"/><path class="b" d="M3148.838,6404.494c4.8,3.227,4.7,2.251,4.8,3.227s-1.515-.331.474,1.088,1.723.53,2.584.795,4.062,1.248,2.48-.181a4.755,4.755,0,0,0-3.55-1.158s-.08-.834-1.491-1.941-5.216-1.873-5.3-1.83Z"/><path class="b" d="M3213.458,6381.155c5.615-1.389,4.823-1.967,5.615-1.389s-1.262.9,1.125.38,1.55-.921,2.325-1.381,3.652-2.17,1.531-1.958a4.754,4.754,0,0,0-3.242,1.851,3.371,3.371,0,0,0-2.44-.2c-1.767.3-4.891,2.606-4.914,2.695Z"/><path class="aa" d="M3161.39,6354.664c-3.364,2.568-5.695,4.962-6.524,7.078a2.328,2.328,0,0,1,1.45.15c1.674.9,17.511-7.854,12.231-4.892s10.043-4.765,14.679-6.825c2.236-.993,19.821-6.747,25.352-11.057a9.239,9.239,0,0,0,1.378-1.287c3.259-3.834-3.01-5.778-12.824-.66-20.988,10.944-16.739,6.953-26.4,12.1-6.355,3.39-7.134,5.161-9.346,5.39Zm-47.307-11.828c-1.8,1.8.644-2.446-7.081,2.7s-13.777,5.408-13.134,8.112,2.833.772,13.391,1.545,9.786-2.833,17.9.9,9.142,2.7,12.619,3.734,5.021-1.8,5.407.515-4.635,1.417,1.8,2.318a19.1,19.1,0,0,0,6.426-.169,31.507,31.507,0,0,0,3.379-8.972c-7.681-2.035-9.9-4.752-9.161-7.469.772-2.833,4.12-8.884,4.12-8.884s1.287-5.923,2.318-7.726,12.747-12.489,2.189-8.755-6.7-.129-13.134,4.249-4.249,1.8-6.953,5.15-8.369,2.06-3.347,3.6,2.7.258,1.8,2.318c-.371.849-4.313-7.4-18.541,6.824Z"/><path class="b" d="M3186.348,6355.17l0,.022,0-.022Zm-.01.043v0Zm11.417,11.464c.017.327.024.72.021,1.156l-.021-1.156Zm.08,1.129.02-.008-.02.008Zm19.024,7.754c2.157-1.7,8.413-1.965,10.78-1.263l-10.78,1.263Zm22.406-6.713a33.957,33.957,0,0,1-9.123,8.093c.925.494,1.817,2.795,2.226,3.882l6.9-11.975Zm-80.23,78.7-.016-.006.016.006Zm-.04-.016-.006,0a12.6,12.6,0,0,1-2.9-.628l2.908.631Zm-27.766-6.549-.033-.012c-.776.148-1.054-.554-1.387-1.059l1.42,1.071Zm-51.19-46.083.017-.006-.017.006Zm.035-.011.029-.007-.029.007Zm.035-.008a.5.5,0,0,1,.1-.01l-.1.01Zm.148-.007.036,0c-.011-.357.041-.744.041-1.121l-.077,1.117Zm.077-1.154c0-.026,0-.051,0-.076l0,.076Zm0-.076c0-.049,0-.1-.008-.148l.008.148Zm-.012-.185c0-.025-.006-.049-.009-.074l.009.074Zm70.586-76.976c.239-.058.48-.116.72-.172l-.72.172Zm6.889-1.372.053,0-.053,0Zm.056,0,.026,0h0l-.026,0Zm.027,0,.01-.01-.01.01Zm.01-.01a.389.389,0,0,1,.034-.026l-.034.026Zm.036-.027.055-.032-.055.032Zm.056-.033.036-.019-.036.019Zm.037-.019.041-.02-.041.02Zm.044-.022.047-.022-.047.022Zm.051-.024.054-.024-.054.024Zm.056-.026.062-.027-.062.027Zm.063-.027.068-.029-.068.029Zm.079-.034.069-.028-.069.028Zm.166-.067.093-.037-.093.037Zm.588-.221.138-.049-.138.049Zm.493-.174.157-.055-.157.055Zm.175-.061.194-.066-.194.066Zm-66.981,75.041c1.12-1.012.341-2.22,1.318-3.069,1.148-1,.78-2.962,2.65-2.564,2.209.47,1.273-.725,3.975-2.151,1.308-.69,2.639-.686,3.928-1.555.445-.3.952-.186,1.475-.331,2.045-.57.169-.2,2.523-.222,2.291-.025,1.524-.8,3.131-.7,1.8.1.953.435,4.238.722a10.413,10.413,0,0,0,2.185.108,3.321,3.321,0,0,1,3.22-2.866c1.485-.122-.164-1.13,3.653-1.21a.926.926,0,0,0,.187-.01c.865-1.407,1.762.854,3.563-.222,2.465-1.474,2.833-.314,4.566-1.55,1.843-1.313,5.477-2.009,6.8-3.581.534-1.894,2.89-.868,4.48-1.773,1.77-1.008,2.132-1.811,4.081-1.244,4.2,1.222,3.534-3.328,6.23-1.211a5.624,5.624,0,0,0,1.935-.72.5.5,0,0,1,.385-.49c2.5-.729,1.493-1.2,4.485-1.174,2.475-1.86,2.711-.448,4.366-1.391a21.071,21.071,0,0,1,3.594-1.255c1.017-.671.653-1.2,2.728-1.469l1.125-.062c1.275-.988,1.461-1.7,3.5-2.162,1.824-.412.478.172,2.219-.53,2.037-.82,3.216-1.848,5.226-1.831a.5.5,0,0,1,.834-.443l.14.113c.8-1.222,3.719-.51,4.662-.963,1.979-.948,1.43-1.774,4.572-2.444,3.1-.661,1.661-1.128,3.3-1.864,1.982-.887,2.3.325,3.843-.675a16.033,16.033,0,0,1,4.493-1.962c1.944-.376.874.116,2.855-1.217a14.747,14.747,0,0,1,4.775-2.43c2.19-.465.647.224,2.072-.487,1.338-.667,2.6-1.307,3.879-2.074a.508.508,0,0,1-.132-.217,19.023,19.023,0,0,1-.574-4.241c-.283-2.852-2.376-4.987-4.592-6.545-3.064-2.155-5.863-3.243-8.868-5.325a26.263,26.263,0,0,1-4.488-3.234c-2.751-2.966-10.855-4.686-14.847-5.471a61.238,61.238,0,0,0-9.095-1.092c-2.161-.089-4.322-.43-6.574-.553-3.162-.173-3.554-.465-6.662.587-1.539.522-2.548.453-3.874.9-2.969,1.009-.423.562-3.308.992-1.875.28-9.087,1.889-10.571,2.611-.39.28-8.258,3.91-9.24,4.307-3.653,1.481-10.541,4.4-14.163,5.1-4.714.9-7.42,3.763-11.595,5.83a96.374,96.374,0,0,0-11.372,7.422c-4.909,3.528-6.282,4.119-9.4,9.534-.768,1.33-.938,3.882-2.474,4.564-1.792,2.52-4.315,8.314-4.556,11.271-.176,2.15-1.351,3.8-1.6,6.156-.575,5.382,2.148,4.519.837,11.061-.423,2.109.96,6.312-2.167,5.46.448,1.024.44,1.6.961,2.187,1.236,1.4-.7,3.082-.118,3.465a1.87,1.87,0,0,0,.023-.234c.151-2.423,1.711.02,2.672-2.275.728-1.738,2.146-.634,3.819-1.293-2.036-2.291,4.114-2,4.771-2.007Zm28.482.016c2.316,1.313.777-.011,2.175-.515a.5.5,0,0,1,.319.953l-.008.013c-.816,1.533-1.187,1.438-3.035.4a.5.5,0,0,1,.549-.846Zm-21.548,1.387c1.534-.467,4.41-.024,4.733-.322,1.338-1.236,1.175,1.262,3.07.5.564-.226,2.295-1,3.027-.477,1.706-1.646,1.858-.417,3.992-.145a1.412,1.412,0,0,0,1.406-.622.5.5,0,0,1,.821.584c-2.273,2.685-4.172-.718-5.459.787-.455.533-1.188.886-1.4.23a1.678,1.678,0,0,0-.223.017c-2.591.321-2.139,1.726-4.624-.1-1.033.828-3.235-.038-4.9.453a.5.5,0,0,1-.443-.906Zm10.15.348,0-.019,0,.019Zm-4.533-.195a.514.514,0,0,0,.035-.054c-.011.019-.023.037-.035.054Zm-11.458,1.845c-.124,1.4,1.048,2.284-.228,2.679.8,1.792,2.839-.287,3.8.9.186.23,8.635-1.379,9.039-1.291,1.735.379,4.516,2.807,4.5,4.736-.007.958.331-.17.329,2.2,0,.713,1.7-.542,1.764.366,3.749-.183,4.093.942,5.352,3.187.555.99,1.6.117,3.379.622a7.519,7.519,0,0,0,3.987.521c2.085-.1,1.091-.322,2.738,1.46.1.108.957.9,1.15,1.094a2.4,2.4,0,0,1,3.123,1.206c.725,1.65.6,1.493,2.683,1.128,1.12-.2.422.984,1.367,1.167,2.207.429,1.778-.483,3.686,1.22,1.013.9,1.316-.833,1.981,1.743a7.7,7.7,0,0,0,.237.817,1,1,0,0,0,.054-.125.413.413,0,0,1-.054-.05.5.5,0,0,1,.024-.712,1.582,1.582,0,0,1,.141-.095c0-.079.012-.161.021-.245a.5.5,0,0,1,1.008,0v.006c1.806.044,4.473,1.008,7.521-.061,1.012-.355,2.634,2.431,4.421.631,1.524-1.535,2.908,1.843,5.059-1.073.432-.587,3.213-.294,4.107-.378,2.881-.269,4.054-1.61,5.491-1.754a2.131,2.131,0,0,1,.451.009c1.146-.532,2.279-2.8,4.287-3.079,1.849-.252,2.773.526,4.638-.773,2.184-1.521.24-.739,2.156-1.4a16.729,16.729,0,0,0,6.364-3.276c3.812-2.825,4.636-1.857,8.609-2.587,2.318-.425,1.069-1.852,5.325-2.12,3.848-.242,2.272-.583,6.005-2.409,1.474-.721,7.8-3.159,8-4.264.686-3.708,4.732-1.98,5.032-4.962a.5.5,0,1,1,1.008,0c-.4,3.894-4.557,2.308-5.034,5.015-.373,2.124-6.418,4.065-8.577,5.121-3.748,1.833-2.226,2.245-6.389,2.506-3.415.214-2.253.9-4.072,1.764-2.817,1.334-4.928-.509-9.245,2.692a18.108,18.108,0,0,1-6.752,3.489c-1.525.343,1.15-.83-1.856,1.256-1.695,1.177-2.491.919-4.292.911-2.912-.014-3.73,3.136-5.21,3.124-1.394-.011-2.561,1.19-4.655,1.583-1.721.323-3.486.056-4.661.229-2.353,3.12-4.272.794-5.061,1.592-1.6,1.614-3.194.889-5.051-.058-3.179,1.045-6.467-.695-7.717-.741a1.94,1.94,0,0,1-.4,1.009c-1.347,1.574-1.914-1.337-2.113-2.076a2,2,0,0,1-1.773-.817c-1.27-1.245-3.736.146-4.187-1.769-.181.043-.359.085-.422.1-2.729.484-2.458-1.06-3.155-2.019a4.438,4.438,0,0,0-2.249.461c-1.023.362-3.032-2.118-3.335-3.5-.158,0-.336.016-.364.017a8.39,8.39,0,0,1-4.336-.56c-2.006-.571-2.927.776-4.09-1.316-.594-1.069-3.445,1.511-3.407-.1-.981.087-1.409.187-1.332-.924-.738.15-2.281.592-2.384-.322-1.848-.079-1.314-1.426-1.479-1.983a.206.206,0,0,0-.042-.016c-1.839-.668-1.168-1.217-1.349-2.2a1.517,1.517,0,0,0-.6-.163c-2.126-.239-3.3-1.958-4.482-2.14-1.019,1.51-2.268.584-3.5.519-.985,1.006-3.561.686-4.725-.733-1.132-.249-3.024,1.073-3.938-1.638a1.616,1.616,0,0,1-.351-.14,2.619,2.619,0,0,1-1.483,1.333c-1.281.32-2.28-.449-2.991-.541-.036.1-.067.231-.085.3a.5.5,0,1,1-.976-.251c.539-1.968,1.684-.655,3.162-.467,1.8.229,1.437-2.527,2.705-1.359.815.751,2.569-1.016,2.679-2.233a.5.5,0,1,1,1.008,0Zm-2.774,13.273c3.649.108.475,2.809,2.427,3.963,1.267.749.855.5.6,2.131a30.7,30.7,0,0,0,5.263.6.5.5,0,1,1-.066,1.006c-1.136-.077-2.286-.148-3.42-.265-3.687-.38-2.625-.927-2.58-2.458a2.47,2.47,0,0,1-1.149-.913c-1.238-1.852.988-3-1.041-3.059a.5.5,0,1,1-.034-1.007Zm125.09-29.544a7.085,7.085,0,0,0-3.137.253c-1.673.495.02-.949-2.745-1.118-1.3-.079-3.065.136-3.556-1.272-.971.048-4.494,1.152-2.626-1.7a3.784,3.784,0,0,0,.5-.89c-.7-.418-.842.641-2.206-1.09-1.409-1.787-.934,2.163-3.69.527a2.885,2.885,0,0,1-1-.952,30.8,30.8,0,0,1-.688,5.6c-.373,1.16-1.053,1.9-1.054,3.166,0,1.878,1.624,2.446.089,3.326a1.212,1.212,0,0,0-.391.585c.292-.026.6-.05.943-.071,3.365-.211,4.768.947,8.226.246a19.434,19.434,0,0,1,4.157-.556c2.479-.13,4.76-1.757,6.419-3.538,0,0,1.626-1.692,1.109-1.936a.572.572,0,0,1-.345-.581l-18.384-8.7h0l.005,0h0l0,0h0l.005,0h0l0,0h0l.005,0h0l0,0h0l0,0h0l0,0h0l0,0h0l0,0h0l.005,0h0l0,0h0l.02-.008h0l.005,0h0l0,0h0l.006,0h.005l.011,0h0l.01,0h.188l.006,0h.023a.5.5,0,0,1,.4.594l-.044.22c-.418,1.573,1.337,2.333,1.772,1.781,2.29-2.9,2.832.327,3.565.357,3.191.131,1.309,1.967.842,2.959.934.026,2.6-.858,2.988.257.554,1.58,4.126-.3,5.148,1.858l.077-.024.075-.023.075-.022h0l.072-.021h0l.073-.02h0l.07-.019h0l.069-.018h0l.068-.017h0l.066-.016h0l.065-.015h0l.065-.015h0l.064-.013h0l.063-.013h0l.062-.012h0l.062-.01h0l.06-.011h0l.06-.009h0l.06-.009h0l.058-.008h0l.057-.007h0l.057-.007h0l.057-.006h0l.057-.006h0l.057,0h0l.055,0h0l.056,0h0l.056,0h0l.055,0h0l.055,0h.444l.057,0h0l.056,0h0l.056,0h0l.058,0h0l.058,0h0l.059,0h0l.059,0h0l.059,0h0l.061,0h0l.061,0h0l.063,0h0l.063,0h0l.064,0h0l.066,0h0l.065,0h0l.067,0h0l.068,0h0l.069,0h0l.07,0h0l.071,0h0l.073,0h0l.075,0h0l.076,0h0l.078,0h0l.078,0h0l.08,0h0l.082,0h0c2.157-1.7,8.412-1.965,10.779-1.263h0l.024-.011h0l.025-.012h0l.027-.013h0l.029-.014h0l.03-.015h0l.031-.016h0l.006,0,.1-.052h0l.036-.02h0l.038-.021h0l.039-.021h0l.123-.07h0l.043-.024h0l.043-.024h0l.045-.025h0l.045-.025h0l.046-.026h0l.094-.053h0l.046-.027h0l.191-.11h0l.1-.056h0l.047-.028h0l.047-.028h0l.048-.028h0l.047-.028h0l.047-.028h0l.092-.054h0l.046-.027h0l.045-.027h0l.045-.026h0l.043-.026h0l.042-.026h0l.083-.049h0l.04-.024h0l.04-.023h0l.037-.023h0l.072-.043h0l.035-.02h0l.033-.02h0l.031-.019h0l.029-.017h0l.028-.017h0l.074-.045h0l.021-.012h0l.019-.012h0l.017-.01.015-.009.013-.008.011-.006.009-.005.006,0c2.327-1.341,4.007-3.1,6.571-4.525a23.98,23.98,0,0,0,3.73-2.509c.691-.925,1.361-1.867,2.018-2.812a10.424,10.424,0,0,0,2.006-5.184,3.28,3.28,0,0,1,.133-1.269l.845-.059c.074.2.1.188.1.309a10.67,10.67,0,0,1-.06,1.151c-.079,2.309.086,3.233-1.771,5.812a15.644,15.644,0,0,1-2.525,2.737l-.143.19h0c-.047.063-.1.126-.143.188s-.095.126-.144.189h0c-.047.063-.095.126-.144.188h0c-.047.062-.1.125-.144.187h0c-.048.063-.1.125-.146.187h0c-.048.062-.1.124-.146.186h0c-.048.062-.1.124-.146.186h0c-.1.123-.2.246-.295.368h0l-.148.184h0c-.05.061-.1.122-.149.183h0a33.946,33.946,0,0,1-9.124,8.093c.926.493,1.818,2.795,2.227,3.882h0l.023.06h0l.021.057h0l.04.106h0l.018.048h0l.017.046h0l.016.042h0l.015.038.014.035h0l.012.032.012.027c1.289,3.062.967,2.192,1,5.114.024,2.6,2.851,2.364,3.239,5.763a16.885,16.885,0,0,0,.437,3.755c.742,2.247.97,1.824.776,4.564-.2,2.826-1.069,7.405-3.386,9.269-1.759,1.415-.614,2.616-3.682,4.084-2.263,1.082-1.784.163-3.11,1.878-1.864,2.411-3.6,1.19-4.681,3.256s-2.558,2.6-4.775,3.26c-2.374.7-1.707.585-4.384,1.992-1.3.682-3.456,1.527-4.478,2.5-2.606,2.477-2.635,2.992-6.076,3.982-1.367.394-2.629.662-3.221,1.959-.881,1.929-4.284,1.871-6.708,3.2-2.013,1.106-3.951,3.394-6.127,2.186-.482-.268-4.028,3.193-4.71,3.6-3.414,2.027-6.248-.066-11.1,3.743-1.919,1.5-2.095,1.443-4.751,1.322-1.448-.066-2.917-.2-4.362-.319-1.5.7-.886.986-3.248,1.154h-.1l-.01,0h-.013l-.006,0h-.032l-.016-.006h0l-.006,0h0l-.005,0h0l-.006,0h0l-.007,0a12.656,12.656,0,0,1-2.9-.628h0l-.165-.051h0l-.052-.016h0l-.1-.031h0l-.048-.015h0l-.048-.014h0l-.046-.014h0l-.044-.013-.043-.013h0l-.042-.012h0l-.04-.012h0l-.038-.011h0l-.037-.01-.036-.01h0l-.033-.009-.032-.008-.029-.007-.028-.006c-2.7-.6-3.881.021-6.941-1.164-2.524-.978-.864-.738-3.218-.867-4.91-.267-8.66-4.53-13.546-3.627l-.005,0h-.01l-.006,0h-.171l-.014,0h-.026l-.014,0h-.01l-.01,0h0l-.014-.005h0l-.033-.012c-.776.148-1.054-.554-1.387-1.059h0l-.041-.061h0l-.042-.059h0l-.022-.027h0l-.021-.028h0l-.022-.026h0l-.022-.026h0l-.023-.025h0l-.023-.024h0l-.023-.023h0l-.024-.021-.024-.021-.025-.019-.026-.018c-1.488,1.123-.869.243-2.34.317-1.911.1-2.405-.883-4.319-1.522-1.483-.5-1.208-.182-1.635-1.249a5.2,5.2,0,0,1-1.75-.014c-.99-.18-2.068-3.8-2.3-4.649a2.463,2.463,0,0,0-.652-.083c-4.532-.287-1.724-1.166-4.852-2.52a17,17,0,0,1-3.2-1.7c-1.351-.82-2.467-.364-3.189-1.388-1.619-2.3-1.234.223-4.762-1.46-1.976-.942-4.387-1.109-5.159-3.208-.648-1.759-4.34.707-4.542-3.345-.064-1.282-3.945-.614-4.575-.292-2.871,1.466-3.433-4.872-4.085-6.073-2.755-.961-.849-2.932-1.669-3.529-2.951-2.152-2.03-2.253-1.646-5.795.19-1.757.417-1.319,1.473-2.271a.517.517,0,0,0-.04-.145c-1.24-3.161,1.667-1.305-.443-4.944a.5.5,0,0,1,.13-.7l0,0,.006,0,0,0,.006,0,0,0h0l.006,0h0l0,0,.005,0h0l.006,0h0l.006,0,0,0h0l.005,0h0l.006,0h0l.006,0h0l0,0h0l.006,0h0l.006,0h0l0,0h0l.006,0h0l.006,0h0l.006,0h0l.017-.006h.006l.006,0h0l.006,0h0l.029-.007h.006a.5.5,0,0,1,.1-.01h.047l.036,0c-.011-.358.041-.745.041-1.122v-.037h0c0-.026,0-.051,0-.076h0c0-.049,0-.1-.008-.148h0l0-.037h0c0-.025-.006-.049-.009-.074h0l-.005-.036h0l0-.037h0l-.006-.036h0l-.007-.036h0l-.008-.035h0l-.009-.036h0l-.009-.036h0l-.01-.034h0l-.011-.036h0l-.012-.034h0l-.013-.035h0l-.013-.034h0l-.015-.034-.015-.033h0l-.017-.034h0l-.017-.033h0l-.018-.033h0l-.02-.033-.02-.032-.022-.032h0l-.023-.031-.024-.032-.025-.03-.026-.031c-.3-.344-2.285-4.1-2.04-4.687.577-1.386,2.726,1.855,2.584-1.646-.069-1.7-.225-.371.08-2.142,1.1-6.409-.742-5.221-.715-9.837a25.42,25.42,0,0,1,1.309-7.229l-.01-.823c.295-3.731,6.636-12.308,6.556-12.242.586-.632,2.923-5.1,3.806-6.375,2.352-3.409,7.18-6.447,10.572-8.81a75.885,75.885,0,0,1,8.862-5.619c4.328-2.141,6.826-4.94,11.8-5.894,3.407-.654,7.772-2.594,11.086-3.893a53.188,53.188,0,0,0,7.865-3.51c4.941-2.88,4.115-2.147,9.188-3.382h0c.239-.058.48-.116.72-.172h0l.18-.043h0l.18-.042h0l.179-.041h0l.179-.041h0l.177-.041h0l.176-.04h0l.175-.039h0l.175-.039h0l.173-.039h0l.172-.037h0l.17-.037h0l.169-.037h0l.167-.036h0l.165-.035h0l.162-.034h0l.16-.034h0l.158-.032h0l.155-.032h0l.153-.031h0l.15-.031h0l.146-.029h0l.144-.028h0l.14-.027h0l.137-.027h0l.133-.025h0l.129-.024h0l.126-.024h0l.121-.022h0l.117-.021h0l.113-.02h0l.109-.019h0l.1-.017.1-.017h0l.094-.014.09-.014.129-.02h.013l.012,0,.1-.014.023,0h0l.022,0,.088-.012.011,0,.091-.012.02,0h0l.092-.013h.017l.018,0,.066-.008h0l.076-.009h.014l.069-.007h0l.067-.008h0l.054-.006h0l.053,0h0c.486-.039-.054.093.026,0h0l.01-.01h0a.389.389,0,0,1,.034-.026h0l.055-.032h0l.036-.019h0l.041-.02,0,0,.047-.022,0,0,.054-.024,0,0,.062-.027h0l.068-.029,0,0,.006,0,.069-.028.006,0,.013-.006.066-.026.01,0h0l.093-.037h0l.1-.038.01,0,.006,0,.108-.041,0,0,.016-.006.1-.038.015-.006.121-.044.008,0,.138-.049.011,0,0,0,.008,0,.147-.052h0l.018-.007.145-.05.02-.007.157-.055.015-.005h0l.194-.066c1.345-.457,2.345-.383,3.775-.865,3.386-1.142,3.705-.862,7.134-.675,2.227.122,4.377.463,6.5.552a62.6,62.6,0,0,1,10.35,1.326c4.127.877,11.479,2.474,14.349,5.568a26.854,26.854,0,0,0,4.32,3.086c3,2.08,5.79,3.158,8.868,5.324,2.483,1.746,4.7,4.107,5.018,7.288l.008.082.008.08.007.078.007.075h0l.006.073h0l.007.071h0l.006.069h0l0,.067,0,.065,0,.064,0,.061,0,.06h0l.005.059h0l0,.057h0l0,.055h0l0,.055h0l0,.053h0l0,.052h0l0,.05h0l0,.05h0l0,.049h0l0,.047h0l0,.047h0l0,.047h0l0,.045h0l0,.045h0c0,.075.009.148.014.219h0c0,.029,0,.058.007.087h0a10.828,10.828,0,0,0,.293,1.727l.006,0h0l0,0h0l.005,0h0l0,0h0l.006,0h0l0,.005h0l.01.01h0l.005,0h0l0,.005h0l0,0h0l0,0h0l.005,0h0l0,.005h0l.005.006h0l0,0h0l0,0h0l0,.006h0l.009.011h0l0,.006h0l0,.006h0l0,0h0l0,.006h0l0,.006h0l0,.006h0l0,.006h0l0,.006h0l0,.007,0,.006h0l0,.006h0l0,.006h0l0,.006h0l0,.007,0,.007,0,.006h0l0,.007,0,.006h0l0,.007h0l0,.006h0l0,.007,0,.007h0l0,.007,0,.007,0,.006v.007l0,.007v.007l0,.007v.015l0,.007v.088c.02.217.193.551.129.773-.238.829-3.812,2.466-4.488,2.765-1.9.84-.4.159-2.289.562-2.756.588-5.216,3.321-6.81,3.556-2.583.38-2.765.792-5.025,1.94-2.171,1.1-2.288-.011-3.942.726-1.335.6-.023,1.178-3.593,1.943-2.669.572-2.362,1.449-4.276,2.362l-.047.022-.05.02h0l-.053.019h0l-.055.018h0l-.057.016h0a.563.563,0,0,1-.059.016h0l-.061.015h0l-.064.014h0l-.131.024h0c-1.22.2-3.248-.018-3.635.4v0h0v0h0v0h0v0h0v0h0v0h0v0h0v0h0v0h0v0h0v0h0v0h0v0h0v0h0v0h0v0h0v0h0v0h0v0h0v0h0v0h0v0h0v0h0v0h0v0h0v0h0v0h0v0h0l0,.022h0l0,.01h0v.006h0v0h0v0h0v0h0q.147.11.287.21h0l.092.065h0l.091.064h0l.088.061h0l.088.059h0l.085.058h0l.085.056h0q.125.081.246.156h0l.08.048h0c.053.033.106.063.157.093h0l.078.043h0l.077.042h0l.151.082h0l.075.039h0l.075.038h0l.076.037h0l.074.037h0l.075.035h0l.074.034h0l.075.034h0l.075.033h0l.075.033h0l.076.032h0l.075.031h0l.077.03h0l.077.031.078.03h0l.078.03h0l.079.029h0l.08.03h0l.081.029h0l.083.03h0l.083.029h0l.085.03.087.03h0l.086.03h0l.09.03h0l.091.03h0l.092.032h0l.094.031.1.032h0l.1.034.1.034.1.034.1.035.106.037h0l.109.036h0l.111.039.114.039.117.04.119.043.123.042.124.044.128.046h0l.131.048.135.048.136.051.141.052c3.945,1.468,5.04,4.3,5.51,8.334l0,.018,0,.019h0l0,.018,0,.02h0l0,.019,0,.02,0,.02,0,.02,0,.021v.02l0,.021,0,.021v.022l0,.021,0,.022v.022l0,.023h0v.045h0l0,.023h0v.024h0v.023h0l0,.024h0c.017.327.024.72.021,1.156Zm-22.095,8.349a.6.6,0,0,1-.625.143.459.459,0,0,1-.075-.04c-2.282.389-3.154,1.116-6.433,2.14-3.295,1.03-8.253,1.574-10.886,2.713a44.348,44.348,0,0,1-6.792,2.4c-1.785.512-2.912,1.09-4.536,1.62-4.615,1.506-10.378,2.9-15.138,3.975a38.175,38.175,0,0,1-9.291.909c-5.009-.027-6.236-1.483-10.466-2.64-2.9-.792-2.88-.06-4.267,1.726.911,1.5,3.318,2.44,4.76,4.28,2.023,2.579,7.249,4.694,10.407,5.67,1.7.527,2.593.8,3.992-.214,1.9-1.371,3.356.314,4.252.538,1.863.465,3.428-.168,5.983.59,4.694,1.391,5.07.669,9.516-.1,1.34-.23,2.13-.1,3.315-.323a30.688,30.688,0,0,1,4.9-.847c2.843-.2,1.436-.686,3.923-1.4,3.414-.973,2.453.513,5.188-1.789.575-.485,1.042-.926,1.8-.707a.536.536,0,0,1,.149.092c2.421-.832,7.332-2.976,8.085-3.775,1.641-1.741,1.694-3.165,4.794-3.661,2.882-.462,1.14.409,3.956-.913a33.585,33.585,0,0,0,4.575-2.582c1.786-1.148,4.23.2,5.32-.822,1.932-1.817,1.976-2.166,4.649-2.553,3.952-.573,2.443-2.412,6.171-3.471a13.077,13.077,0,0,0,2.113-.635c1.425-1.223.382.167,2.771-1.294.193-1.118-.567-1.627.793-3.528,1.077-1.506,1-.864,1.948-2.759a1.729,1.729,0,0,1,.517-.67.513.513,0,0,1-.122-.15.5.5,0,0,1,.21-.682,32.155,32.155,0,0,0,8.542-7.421c-.355.214-.715.422-1.083.627-2.5,1.389-4.19,3.154-6.508,4.491-.139.08-1.186.709-1.92,1.12a.5.5,0,0,1-.889.374l-.184.02a.506.506,0,0,1-.355-.171,30.984,30.984,0,0,0-3.677-.161c-.97,0-5.307.362-6.164,1.435,1.152,1.086-1.033,3.232-1.8,3.918-1.98,1.763-3.766,3.086-6.473,3.228a18.169,18.169,0,0,0-3.926.523c-3.3.67-5.278.461-8.465.577-1.03.037-1.855.1-2.552.187Zm-.57-.946c.107-.2.141-.377.254-.644.768-1.83,1.275.028,1.267-2.579-.012-4.147-.056-1.777,1.043-5.164a41.781,41.781,0,0,0,.655-9.243c-.423-3.633-1.305-6.184-4.839-7.5-3.274-1.216-2.869-.056-5.224-1.855a1.57,1.57,0,0,1-.612.044c-2.077-.173-4.031.687-6.056,1.474-2.6,1.012-2.134-.265-4.405,1.958-1.328,1.3-3.32.36-4.931,2a52.247,52.247,0,0,1-6.294,2.313c-3.159.25-9.421,2.528-14.051,3.82-1.609.448-2.561.032-3.748.392-2.347.712-4.19,3.273-4.506,3.454-.429.245-2.771-.333-3.371-.017a34.05,34.05,0,0,0-4.356,2.939c-1.8,1.283-2.593-.24-4.188.438a.5.5,0,0,1,.092.592c-1.259,4.067.869,8.254,2.744,11.754.593,1.107,1.6-1.172,2.863.91.287.473.427,1.245.7,1.676.723-.881.7-1.982,2.055-1.013l.013.008c.043-.4.353-2.779,2.32-.581,1.1,1.228,1.775,2.978.781,4.447-1.386,2.049-.28,1.643,1.624,2.041,1.167.244.211,1.411.572,1.569a3.606,3.606,0,0,0,1.414.194.5.5,0,0,1,1,.071v.019c.306-.036.576-.074.8-.117,4.954-.949,11.373-2.646,16.229-4.107,2.023-.609,3.578-1.371,5.642-1.963a42.958,42.958,0,0,0,6.6-2.325c3.12-1.355,8.238-1.767,12.067-3.118,2.8-.986,3.6-1.568,5.851-1.892Zm-41.84-8.481a2.627,2.627,0,0,1-.055.529c.426.016.8.111.92.563a1.287,1.287,0,0,0,.639-1.189.5.5,0,1,1,1.008,0v.3c-.049,1.048-1.973,3.157-2.583,1.347-2.609-.113-.95-.783-.936-1.489a.5.5,0,0,1,1.006-.061Zm-5.227,18.94c-.529-.576-1.148-1.439-.234-1.545.456-.053.815.363,1.04.937.089.085.213.2.4.382a.5.5,0,0,1,.033.712.481.481,0,0,1-.168.122,2.89,2.89,0,0,1-.1,1.018l-.227.553.04-.078,0,.171a.5.5,0,0,1-1.008,0c-.016-.679.559-1.427.222-2.272Zm6.786-.254a3.048,3.048,0,0,1-1.533-2.7c-.325.457-.386,1.08-.757,1.586a.5.5,0,0,1-.831-.569c.068-.094.132-.178.194-.275.657-3.036,3.708-2.491,2.7-1.425-.682.719-.01,2.015.453,2.408a.5.5,0,0,1-.223.978Zm-.938-4.1.035-.029-.035.029Zm-9.295,7.645a2.063,2.063,0,0,1-.08-1.117c-2.553-.323-3.781-.98-2-3.621.278-.412-2.88.259-3.957-.358-1.919-1.1-2.48-3.485-2.629-3.427-1.739.676-1.849.163-2.648-1.474-3.757-7.7-8.854-5.325-8.661-10.746-1.392,1.795-3.057-.408-3.931,3.239-.222.927-2.391.423-3.186.354-1.706-.149-1.254-.286-2.423.255a3.936,3.936,0,0,1-2.152.254,4.054,4.054,0,0,1-2.7.732c-2.4.028-.874-.056-2.91.511a8.1,8.1,0,0,0-1.2.215c-1.172.839-3.695,1.848-4.346,2.487l-.174.511c-.8,1.885-1.961,1.192-2.956,1.109a2.864,2.864,0,0,1-.334.726c-.432.635-2.764,4.491-2.9,4.5-.089.08-4.573-1.316-5.1-1.144.312.53,1.271,2.285.005,2.772-2.6,1-2.27-.3-3.252,1.8-.491,1.051-1.965-.564-2.973-.416-.074.9-.374,1.785-1.292,1.365,1.213,2.755-.782,2.413-.179,3.707.985,2.114-1.008,1.2-1.208,3.108-.362,3.454-1.276,3.143,1.233,4.98,1.648,1.207-.687,2.648,1.448,3.41,1.352.482,1.427,4.891,3.184,3.987,1.106-.57,7.328-.633,7.461,2.019.154,3.056,2.086,1.47,3.152,4.361.53,1.438,4.765.136,6.245.845,2.991,1.434,1.482.6,3.567,3.574.23.328,1.762-.471,2.786.151,1.572.953,2.747,1.038,4.578,1.83,3.7,1.6-.261,2.181,3.734,2.441,1.767.115,1.647.076,2.1,1.416,1.815,5.328,3.408,1.9,4.142,2.587a4.574,4.574,0,0,1,.822,1.115c-1.168.457,2.787,2.635,4.164,3.086.669-.418,1.06-.87,2.044.309a9.346,9.346,0,0,1,1.328.286.62.62,0,0,0,.2-.092.5.5,0,0,1,.6.04c5.337-.655,7.786,3.479,13.557,3.566,1.042.016,3.352,1.458,5.079,1.782,1.8.337,2.33.547,4.229.957,2.7.583,4.509.6,6.751-.908.911-.613,2.516-.092,3.913,0,4.812.32,2.634,1.168,5.861-.9,4.3-2.762,5.717-1.373,9.151-2.591.162-.058,5.748-6.6,5.78-6.752.429-2.031-.275-1.893,1.663-2.325.909-.2.705-3.7.962-4.935a4.474,4.474,0,0,0,.179-1.171.5.5,0,1,1,1.008,0,5.4,5.4,0,0,1-.206,1.4c-.332,1.6-.02,3.129-.572,4.607-.5,1.323-1.341.951-1.861,1.17a.333.333,0,0,0-.049.152c1.481,2.834.744,1.58,5.972,1.089,1.633-.725,4.718-1.011,5.268-2.219.756-1.663,1.405-2.837,3.128-3.332,3.5-1.008,3.53-1.493,6.228-3.9,1.32-1.177,5.474-2.02,7.072-2.868,2.533-1.344,4.4-1.316,5.778-3.946,1.371-2.611,3.863-.954,5.521-3.1,1.523-1.974,1.252-1.125,3.493-2.194,2.733-1.3,1.419-2.287,3.554-4.011,1.664-1.345,2.4-4.651,2.723-6.667.846-5.3-.575-4.274-.892-8.159-.326-3.991.172-2.245-2.081-4.83-1.6-1.841-1.159-2.289-1.2-4.334a22.965,22.965,0,0,0-2.746-7,12.455,12.455,0,0,1-1.3,2.143c-1.585,1.921-1.407,1.527-1.377,3.716.018,1.215-2.021,1.877-2.8,1.861l-.06.049a.5.5,0,0,1-.254.319l-.178.065c-.362.334-.762.721-.871.822a.5.5,0,0,1-.712-.024.488.488,0,0,1-.127-.251c-.161.043-.363.1-.621.173-3.137.89-2.218,2.614-5.36,3.359-3.087.733-1.393.281-4.212,2.935-1.718,1.617-5.377.345-6.937,1.347-1.745,1.122-1.62,1.427-3.561,2.338-3.533,1.659-6.557,2.923-10.213,4.649-2.4,1.133-6.15,3.115-8.644,3.508a.511.511,0,0,1-.114-.013l-.067.058c-3.644,3.075-10.019,4.172-14.683,5.027-6.13,1.124-7.134,1.406-13.131-.379-2.521-.751-5.331.116-6.933-1.056-1.236-.9-1.778-.561-2.822.1-2.149,1.37-5.625-.332-7.676-1.18-3.027-1.251-5.7-2.28-7.764-4.906-1.415-1.8-3.614-2.467-4.667-4.094a.5.5,0,0,1-.382-.153.506.506,0,0,1-.018-.682,4.076,4.076,0,0,1-.188-.97.5.5,0,0,1,1.005-.042c1.283-1.674,1.724-2.406,4.9-1.54,4.091,1.114,5.4,2.577,10.192,2.6.648,0,1.641-.014,2.693-.054Zm12.991,44.474c-.866.188-2.277.393-1.725-1.048.64-1.668-.835.3-.7-2.918a.5.5,0,0,1,1.008,0l-.023.567c-.036,1.489,1.341.227.7,2.526.174-.028.353-.074.5-.106a.5.5,0,1,1,.239.979Zm-57.846-44.321a.369.369,0,0,0-.032.044l.032-.044Zm4.264.1.016-.024-.016.024Zm-3.48.526a.464.464,0,0,0,.051-.065.775.775,0,0,1-.051.065Zm18.206,33.913-.013-.051a.206.206,0,0,0,.013.051Zm37.845-66.4.008.006-.008-.006Zm-43.593,15.038c.022-.012.043-1.282.07-1.3l-.07,1.3Z"/><path class="b" d="M3136.642,6434.008c-1.419.418-5.753-1.876-3.866-4.125l2.111-2.514a6.468,6.468,0,0,1,2.769-1.652,4.964,4.964,0,0,1,.739-2.5l2.11-2.515c.568-.677,1.674-1.069,3.979-.84,1.212.12,2.509,9.336,2.509,10.087l-2.11,2.515c0-.751-1.3-9.967-2.509-10.087a8.491,8.491,0,0,0-2.5.048,4.729,4.729,0,0,1-.748,2.442l-2.11,2.515a2.412,2.412,0,0,1-1.122.726,12.635,12.635,0,0,0-1.471.594c.19,1.725,3.189,3.126,4.325,2.792l-2.111,2.515Z"/><path class="b" d="M3115.319,6413.467a3.747,3.747,0,0,1-.515,2.522l-.684.814c.434.416,1.4,1.283,3.237,3.124.056.056.11.108.163.156l1.662-1.98a4.507,4.507,0,0,1-.362,2.308l-2.111,2.515c-.258.309-.7.276-1.463-.484-2.9-2.9-3.619-3.382-3.526-3.494l1.438-1.714a7.465,7.465,0,0,0,.051-1.252l2.11-2.515Z"/><path class="b" d="M3185.828,6425.767a7.888,7.888,0,0,1-1.851.436l-.018.021a9.546,9.546,0,0,1-1.133,1.045c-1.046.864-1.495.657-1.746.349l-1.22,1.453c-.437.1-.606.2-.985.3l1.589-1.894a1.275,1.275,0,0,1,.152-.259l2.11-2.515c.384-.457.26,1.65,2.195.061l1.012-1.205c.1-.124.457-.246.154.127a7.928,7.928,0,0,0,1.851-.435l-2.11,2.514Z"/><path class="b" d="M3203.646,6409.347c0,2.976-.468,3.978-.846,4.428l-.465.555c-.019.185.111.487.5,1.175a7.269,7.269,0,0,1,.044,2.6l-2.111,2.514a7.214,7.214,0,0,0-.044-2.6c-.526-.943-.574-1.161-.419-1.347l.638-.759a9.143,9.143,0,0,0,.6-4.052l2.11-2.515Z"/><path class="b" d="M3214.541,6393.578c-.314.374-5.607,3.248-6.126,2.542s-1.242-.01-1.565.354l-.155.186-.009.009.036-.043.055-.067,2.111-2.515c.27-.322,1.082-1.2,1.638-.438.518.705,5.812-2.169,6.125-2.543l-2.11,2.515Z"/><path class="b" d="M3200.635,6399.115a5.309,5.309,0,0,0-.612.58l2.11-2.514a5.249,5.249,0,0,1,.612-.581l-2.11,2.515Zm1.5-1.934c-1.231,1.466,5.866-2.046,5.6-.334.269.212.786-.1,1.125-.5l-2.11,2.515c-.339.4-.856.715-1.126.5.266-1.711-6.831,1.8-5.6.334l2.11-2.514Zm4.616,1.678a1.307,1.307,0,0,0,.324-.645l2.11-2.515a1.308,1.308,0,0,1-.324.645l-2.11,2.515Z"/><path class="b" d="M3136,6371.69c.188-7.644-5.219-1.624-4.893-3.734.135-.878-5.94.235-4.367-2.039-1.132-.267-2.245.534-1.137-.788l.234-.278c-.5-1.03-6.541-.783-7.477-.5l2.11-2.516c.938-.283,6.994-.529,7.479.5l-.415.494c-.792,1.007.254.317,1.316.569-1.573,2.272,4.5,1.16,4.367,2.038-.325,2.109,5.081-3.91,4.893,3.734l-2.11,2.515Z"/><path class="b" d="M3214.983,6335.229l.38-.433-.68.811-1.43,1.7-.381.433,2.111-2.515Z"/><path class="b" d="M3086.606,6400.462c.725,2.174,1.306,1.031,3.863,1.031l-2.111,2.515c-2.556,0-3.138,1.143-3.862-1.03l2.11-2.516Z"/><path class="b" d="M3219.948,6419.973c-6.75-.24-8.953,2.628-11.33,3.091l2.11-2.515c2.378-.463,4.581-3.332,11.33-3.09l-2.11,2.514Z"/><path class="b" d="M3083.208,6378.514a9.238,9.238,0,0,1,2.075-5.25l2.11-2.515a17.122,17.122,0,0,1,1.673-1.666,5.887,5.887,0,0,0,.558-2.246,1.91,1.91,0,0,1,.51-.983l2.11-2.516c1.633-1.945,6.894-4.69,11.682-1.48,6.972,4.673,9.9-4.419,11.691,1.824.238.83,3.157-.541,3.178-.559l-2.11,2.515c-.022.018-2.94,1.388-3.178.559-1.793-6.243-4.719,2.849-11.692-1.824a9.1,9.1,0,0,0-10.095.136,5.522,5.522,0,0,1-1.324,3.247l-2.11,2.515a19.586,19.586,0,0,1-1.764,1.723,10.113,10.113,0,0,0-1.2,4l-2.11,2.515Z"/><path class="ab" d="M3153.467,6399.247a29.425,29.425,0,0,0,9.312-1.227c1.8-.722,1.228-4.332,7.364-4.043s12.633-2.022,14.149-2.6,8.158-3.177,10.324-3.177,7.869-2.021,9.962-2.021-3.609,2.6-8.157,3.754-4.693.145-10.973,2.238-10.18,2.093-13.789,3.1-4.332-.072-6.641,1.589-2.527,3.031-7.87,3.031-10.612-.216-10.612-.216l6.931-.433Z"/></g></svg>