<svg xmlns="http://www.w3.org/2000/svg" width="763.634" height="251.532" viewBox="0 0 763.634 251.532"><defs><style>.a{fill:none;stroke:#bb80ff;stroke-linecap:round;stroke-linejoin:round;stroke-width:3.297px;}</style></defs><path class="a" d="M1951.948,3457.318h-92.429c-66.428,0-133.3-6.941-199.541.394-14.4,1.594-28.75,3.745-43.154,5.247-12.706,1.324-25.447,2.139-38.195,2.55-72.565,2.337-144.836-8.191-217.384-8.191H1252.989c-16.4,0-29.687,16.049-29.687,35.846,0,39.392-10.585,103.348,15.418,133.1,21.112,24.153,61.392,15.949,88.608,15.949h540.209c4.427,0,22.305-3.52,25.983,0l63.115,60.373L1934.5,3642.21h17.444c16.4,0,29.687-16.049,29.687-35.846v-113.2C1981.635,3473.367,1968.344,3457.318,1951.948,3457.318Z" transform="translate(-1219.649 -3452.699)"/></svg>