<svg xmlns="http://www.w3.org/2000/svg" width="763.342" height="253.816" viewBox="0 0 763.342 253.816"><defs><style>.a{fill:none;stroke:#bb80ff;stroke-linecap:round;stroke-linejoin:round;stroke-width:3.3px;}</style></defs><path class="a" d="M1951.948,3165.158h-24.36l-65.745-63.006,23.054,63.006c-.807-2.205-26.917,0-29.063,0H1330.188c-26.356,0-54.973-1.494-80.447,7.608-6.39,2.282-12.949,5.659-16.787,12.246-2.376,4.078-3.482,9.017-4.416,13.876-7.256,37.741-5.236,77.132-5.236,115.593,0,19.835,13.291,35.913,29.687,35.913h592.679c33.662,0,78.649,8.57,109.327-7.125,6.426-3.288,12.873-6.829,18.256-12.2,15.291-15.257,8.384-53.544,8.384-75.9v-54.1C1981.635,3181.237,1968.344,3165.158,1951.948,3165.158Z" transform="translate(-1221.429 -3100.502)"/></svg>