<svg xmlns="http://www.w3.org/2000/svg" width="35.975" height="34.25" viewBox="0 0 35.975 34.25"><defs><style>.a{opacity:0.75;}.b{fill:#bebebe;mix-blend-mode:multiply;isolation:isolate;}.c{fill:#aab3c1;}</style></defs><g class="a" transform="translate(-2773.446 -5696.872)"><path class="b" d="M2775.091,5721.2s-1.246,1.215-.42,1.518a2.753,2.753,0,0,1,1.368,1.886c.141.53.916.5,1.608.6a2.244,2.244,0,0,1,1.772.875,20.324,20.324,0,0,1,.846,2.063c.457.884-.993.967-.112,1.884s1.071,1.126,1.284,1.091.488-.205.82-.692c.1-.145,6.42-6.328,12.477-12.211s14.687-14.148,14.687-14.148-.5-.991-1.232-.89-.611.4-.929.1-1.912-.318-2.32-.584-.293-.9-.242-1.008-.917-.252-1.181-.335.176-.422-.206-.882-1.145-1.439-1.3-1.285-.449-.333-.634-.654-.3-.157-.751-.437-.882-.917-1.214-.595S2775.091,5721.2,2775.091,5721.2Z"/><path class="c" d="M2774.149,5720.66s-1.247,1.216-.42,1.52a2.757,2.757,0,0,1,1.369,1.887,1.684,1.684,0,0,0,1.44,1.036c.693.1,1.483-.224,1.939.442a20.782,20.782,0,0,1,.845,2.062c.457.885-.993.968-.112,1.885s.832,1.632,1.81,1.566.83-.327,1.25-.739l27.077-26.294s-.779-1.425-1.509-1.324-1.2.34-1.521.039-1.252-.444-1.662-.709a.877.877,0,0,1-.259-.97c.051-.106-.57-.148-.834-.232s-.371-.481-.753-.942-1.586-1.394-1.744-1.24.143-.584-.042-.9-.891.092-1.343-.188-.882-.917-1.214-.594S2774.149,5720.66,2774.149,5720.66Z"/></g></svg>